<?xml version="1.0" encoding="UTF-8"?>
<svg id="Lager_2" data-name="Lager 2" xmlns="http://www.w3.org/2000/svg" viewBox="0 0 450 450">
  <defs>
    <style>
      .cls-1 {
        fill: #65c2ed;
      }

      .cls-1, .cls-2, .cls-3 {
        stroke-width: 0px;
      }

      .cls-2 {
        fill: #090a0a;
      }

      .cls-3 {
        fill: #1d1d1b;
      }
    </style>
  </defs>
  <g id="Layer_1" data-name="Layer 1">
    <path class="cls-2" d="m100,0h340c5.52,0,10,4.48,10,10v340c0,55.19-44.81,100-100,100H10c-5.52,0-10-4.48-10-10V100C0,44.81,44.81,0,100,0Z" transform="translate(450 450) rotate(180)"/>
    <path class="cls-3" d="m226.27,251.73l-.02.06h0s.02-.04.03-.06Z"/>
    <path class="cls-1" d="m165.52,172.89c1.51-2.9,5.92-1.27,5.18,1.91l-24.51,99.93c-4.19,18.23-.92,35.41,17.18,44.23,30.17,14.71,58.03-8.87,71.88-34.3,13.5-24.81,32.74-54.47,47.51-81.32,11.33-20.29,23.84-43.18,46.7-52.23,8.79-3.47,18.43-4.39,27.87-3.82,7.26.43,14.55,1.74,21.21,4.68,11.39,5.04,25.47,19.44,23.28,33.07-.54,3.32-2.43,6.36-5.45,7.84-5.89,2.88-12.04-1.11-17.15-3.68-14.76-7.4-32.61-9.69-48.88-6.3-15.62,3.26-35.6,14.07-38.07,31.58-.09.63-.15,1.26-.17,1.89-.44,13.51,11.18,23.98,21.13,31.2,12.58,9.14,26.56,16.16,39.18,25.25,6.7,4.82,15.45,10.1,19.75,17.35,2.6,4.39,3.18,10.4,0,14.4-1.58,1.98-3.89,3.26-6.23,4.23-13.12,5.43-27.9,2.34-40.3-3.53-5.31-2.51-10.36-5.59-15.09-9.07-6.19-4.56-11.68-10.01-18.02-14.37-4.86-3.34-11.13-5.03-15.31.14-4.05,5.01-.85,11.02,2.56,15.6,3.79,5.09,7.99,9.59,12.74,13.77.76.67,1.52,1.33,2.3,1.97,16.7,13.71,37.56,21.94,59.25,22.29,28.26.46,59.88-15.82,59.88-47.29,0-41.41-81.91-54.62-81.91-81.09,0-7.6,8.61-12.73,14.69-13.27,7.6-.68,15.36.62,22.34,3.68.21.09.42.18.63.28,6.76,3.08,12.93,7.79,20.24,9.15,11.3,2.11,22.99-4.94,26.28-15.88,5.24-17.4-2.41-37.56-13.96-50.67-1.75-1.99-3.62-3.87-5.61-5.62-27.15-23.87-71.94-26.36-103.44-10.25-19.79,10.12-26.43,17.72-45.58,48.2l-54.2,102.41c-1.71,3.23-6.62,1.5-5.93-2.09l22.53-116.85c3.33-23.2-14.07-41.68-36.98-41.68-18.65,0-29,13.1-36.91,28.82-13.75,27.32-28.18,59.91-40.93,86.63-1.04,2.18-2.65,2.26-3.48,0l-17.23-101c-1.11-3.96-3.48-7.46-6.76-9.94l-.76-.58c-11.54-8.75-32.8-2.4-34.64,11.97-.35,2.71-.1,5.47.73,8.07l33.91,171.59c3.51,11.94,19.99,11.94,25.17,1.16l73.42-138.47Z"/>
  </g>
</svg>